{"title":"Dial M for Murder(1954)MP-4[DaScubaDude]","uid":12453408,"size":1289585982,"categoryP":"video","categoryS":"movies","magnet":"?xt=urn:btih:994c3bbcfdc14aca51d2938d4502ab58a03dcc06&amp;dn=Dial+M+for+Murder%281954%29MP-4%5BDaScubaDude%5D&amp;tr=udp%3A%2F%2Ftracker.openbittorrent.com%3A80&amp;tr=udp%3A%2F%2Fopen.demonii.com%3A1337&amp;tr=udp%3A%2F%2Ftracker.coppersurfer.tk%3A6969&amp;tr=udp%3A%2F%2Fexodus.desync.com%3A6969","seeders":0,"leechers":0,"uploader":"dascuba","files":1,"time":1442712886,"description":"Dial M for Murder (1954)\nPG  |  105 min  |  Crime, Thriller  |  29 May 1954 (USA)\n8.2 Your rating:   -/10   Ratings: 8.2/10 from 94,153 users   \nReviews: 250 user | 117 critic\nAn ex-tennis pro carries out a plot to murder his wife. When things go wrong, he improvises a brilliant plan B.\n\nDirector: Alfred Hitchcock\nWriters: Frederick Knott (screen play), Frederick Knott (adapted from his play)\nStars: Ray Milland, Grace Kelly, Robert Cummings\n\nGeneral\nComplete name                   : C:Dial M for MurderDIAL_M_FOR_MURDER_Title1.mp4\nFormat                                   : MPEG-4\nFormat profile                           : Base Media\nCodec ID                                 : isom\nFile size                                : 1.20 GiB\nDuration                                 : 1h 45mn\nOverall bit rate mode                    : Constant\nOverall bit rate                         : 1 633 Kbps\nMovie name                               : DIAL_M_FOR_MURDER\nGenre                                    : Thriller\nWriting application                      : Lavf54.6.100\n\nVideo\nID                                       : 1\nFormat                                   : MPEG-4 Visual\nFormat settings, BVOP                    : No\nFormat settings, QPel                    : No\nFormat settings, GMC                     : No warppoints\nFormat settings, Matrix                  : Default (H.263)\nCodec ID                                 : 20\nDuration                                 : 1h 45mn\nBit rate mode                            : Constant\nBit rate                                 : 1 499 Kbps\nWidth                                    : 720 pixels\nHeight                                   : 540 pixels\nDisplay aspect ratio                     : 4:3\nFrame rate mode                          : Constant\nFrame rate                               : 29.970 fps\nColor space                              : YUV\nChroma subsampling                       : 4:2:0\nBit depth                                : 8 bits\nScan type                                : Progressive\nCompression mode                         : Lossy\nBits/(Pixel*Frame)                       : 0.129\nStream size                              : 1.10 GiB (92%)\nWriting library                          : Lavc54.23.100\n\nAudio\nID                                       : 2\nFormat                                   : MPEG Audio\nFormat version                           : Version 1\nFormat profile                           : Layer 3\nCodec ID                                 : 6B\nDuration                                 : 1h 45mn\nBit rate mode                            : Constant\nBit rate                                 : 128 Kbps\nChannel(s)                               : 2 channels\nChannel(s)_Original                      : 1 channel\nSampling rate                            : 44.1 KHz\nCompression mode                         : Lossy\nStream size                              : 96.4 MiB (8%)\nWriting library                          : LAME3.99.5","torrent":{"xt":"urn:btih:994c3bbcfdc14aca51d2938d4502ab58a03dcc06","amp;dn":"Dial+M+for+Murder%281954%29MP-4%5BDaScubaDude%5D","amp;tr":["udp%3A%2F%2Ftracker.openbittorrent.com%3A80","udp%3A%2F%2Fopen.demonii.com%3A1337","udp%3A%2F%2Ftracker.coppersurfer.tk%3A6969","udp%3A%2F%2Fexodus.desync.com%3A6969"],"infoHash":"994c3bbcfdc14aca51d2938d4502ab58a03dcc06","infoHashBuffer":{"type":"Buffer","data":[153,76,59,188,253,193,74,202,81,210,147,141,69,2,171,88,160,61,204,6]},"announce":[],"urlList":[]}}